<?xml version="1.0" encoding="utf-8"?>
<!-- Generator: Adobe Illustrator 22.0.1, SVG Export Plug-In . SVG Version: 6.00 Build 0)  -->
<svg version="1.0" id="Layer_1" xmlns="http://www.w3.org/2000/svg" xmlns:xlink="http://www.w3.org/1999/xlink" x="0px" y="0px"
	 viewBox="0 0 100 100" style="enable-background:new 0 0 100 100;" xml:space="preserve">
<style type="text/css">
	.st0{fill:url(#SVGID_1_);}
</style>
<title>03</title>
<linearGradient id="SVGID_1_" gradientUnits="userSpaceOnUse" x1="15.5605" y1="49.995" x2="84.4393" y2="49.995">
	<stop  offset="0" style="stop-color:#F28E1D"/>
	<stop  offset="0.25" style="stop-color:#F6A017"/>
	<stop  offset="0.58" style="stop-color:#D23E71"/>
	<stop  offset="1" style="stop-color:#4A4D9C"/>
</linearGradient>
<path class="st0" d="M76,78.7V54.3c0-14.4-11.6-26-26-26c-14.4,0-26,11.6-26,26l0,0v24.4c-4.9,0.2-8.7,4.4-8.4,9.3
	c0.2,4.7,4.1,8.4,8.8,8.4h51.2c4.9,0,8.9-4,8.8-8.9C84.4,82.8,80.7,78.9,76,78.7z M50,34.3c11,0,20,9,20,20v24.4H30V54.3
	C30,43.2,38.9,34.3,50,34.3C50,34.3,50,34.3,50,34.3z M75.6,90.4H24.4c-1.6-0.1-2.8-1.5-2.7-3c0.1-1.5,1.2-2.6,2.7-2.7h51.2
	c1.6-0.1,2.9,1.1,3,2.7s-1.1,2.9-2.7,3C75.8,90.4,75.7,90.4,75.6,90.4z M53,17.2V6.6c0-1.7-1.3-3-3-3s-3,1.3-3,3v10.7
	c0,1.7,1.3,3,3,3S53,18.9,53,17.2z M71.3,26.7l8.1-7.6c1.2-1.2,1.2-3.1,0.1-4.2c-1.1-1.2-3-1.2-4.2-0.1l-8.1,7.6
	c-1.2,1.1-1.3,3-0.2,4.2S70,27.9,71.3,26.7C71.2,26.7,71.3,26.7,71.3,26.7z M30.8,27.5c1.7,0,3-1.3,3-3c0-0.8-0.3-1.6-0.9-2.2
	l-8.1-7.6c-1.2-1.1-3.1-1.1-4.2,0.1s-1.1,3.1,0.1,4.2l8.1,7.6C29.3,27.2,30,27.5,30.8,27.5z"/>
</svg>
